<svg xmlns="http://www.w3.org/2000/svg" viewBox="0 0 64 64" id="learning-idea">
  <g>
    <line x1="8.29" x2="9.88" y1="19.25" y2="19.25" fill="none" stroke="#22184c" stroke-linecap="round" stroke-linejoin="round"></line>
    <line x1="7.39" x2="7.39" y1="20.11" y2="21.71" fill="none" stroke="#22184c" stroke-linecap="round" stroke-linejoin="round"></line>
    <line x1="6.53" x2="4.93" y1="19.22" y2="19.22" fill="none" stroke="#22184c" stroke-linecap="round" stroke-linejoin="round"></line>
    <line x1="7.42" x2="7.42" y1="18.35" y2="16.76" fill="none" stroke="#22184c" stroke-linecap="round" stroke-linejoin="round"></line>
    <line x1="55.63" x2="57.22" y1="37.62" y2="37.62" fill="none" stroke="#22184c" stroke-linecap="round" stroke-linejoin="round"></line>
    <line x1="54.73" x2="54.73" y1="38.48" y2="40.07" fill="none" stroke="#22184c" stroke-linecap="round" stroke-linejoin="round"></line>
    <line x1="53.87" x2="52.27" y1="37.58" y2="37.58" fill="none" stroke="#22184c" stroke-linecap="round" stroke-linejoin="round"></line>
    <line x1="54.76" x2="54.76" y1="36.72" y2="35.12" fill="none" stroke="#22184c" stroke-linecap="round" stroke-linejoin="round"></line>
    <line x1="54.95" x2="56.54" y1="10.52" y2="10.52" fill="none" stroke="#22184c" stroke-linecap="round" stroke-linejoin="round"></line>
    <line x1="54.05" x2="54.05" y1="11.38" y2="12.98" fill="none" stroke="#22184c" stroke-linecap="round" stroke-linejoin="round"></line>
    <line x1="53.19" x2="51.59" y1="10.49" y2="10.49" fill="none" stroke="#22184c" stroke-linecap="round" stroke-linejoin="round"></line>
    <line x1="54.08" x2="54.08" y1="9.62" y2="8.03" fill="none" stroke="#22184c" stroke-linecap="round" stroke-linejoin="round"></line>
    <line x1="14.82" x2="16.42" y1="43.59" y2="43.59" fill="none" stroke="#22184c" stroke-linecap="round" stroke-linejoin="round"></line>
    <line x1="13.93" x2="13.93" y1="44.45" y2="46.05" fill="none" stroke="#22184c" stroke-linecap="round" stroke-linejoin="round"></line>
    <line x1="13.06" x2="11.47" y1="43.56" y2="43.56" fill="none" stroke="#22184c" stroke-linecap="round" stroke-linejoin="round"></line>
    <line x1="13.96" x2="13.96" y1="42.69" y2="41.1" fill="none" stroke="#22184c" stroke-linecap="round" stroke-linejoin="round"></line>
    <line x1="9.83" x2="12.02" y1="9.63" y2="9.63" fill="none" stroke="#22184c" stroke-linecap="round" stroke-linejoin="round"></line>
    <line x1="8.6" x2="8.6" y1="10.82" y2="13.01" fill="none" stroke="#22184c" stroke-linecap="round" stroke-linejoin="round"></line>
    <line x1="7.41" x2="5.22" y1="9.58" y2="9.58" fill="none" stroke="#22184c" stroke-linecap="round" stroke-linejoin="round"></line>
    <line x1="8.64" x2="8.64" y1="8.39" y2="6.2" fill="none" stroke="#22184c" stroke-linecap="round" stroke-linejoin="round"></line>
    <line x1="52.55" x2="54.75" y1="44.72" y2="44.72" fill="none" stroke="#22184c" stroke-linecap="round" stroke-linejoin="round"></line>
    <line x1="51.32" x2="51.32" y1="45.91" y2="48.1" fill="none" stroke="#22184c" stroke-linecap="round" stroke-linejoin="round"></line>
    <line x1="50.13" x2="47.94" y1="44.68" y2="44.68" fill="none" stroke="#22184c" stroke-linecap="round" stroke-linejoin="round"></line>
    <line x1="51.36" x2="51.36" y1="43.49" y2="41.3" fill="none" stroke="#22184c" stroke-linecap="round" stroke-linejoin="round"></line>
    <path fill="#ffcb29" d="M31.43,46.78H26.21a3.08,3.08,0,0,1-3.07-3.09V42.42a3.7,3.7,0,0,0-1.79-3.13A19.19,19.19,0,0,1,30.66,3.77a6.6,6.6,0,0,1,.77,0v43Z"></path>
    <path fill="#fcb316" d="M30.66,3.77c-.28,0-.56,0-.84.07V46.78h1.61v-43A6.6,6.6,0,0,0,30.66,3.77Z"></path>
    <path fill="#ffd54f" d="M27.32,43.7V42.42a3.7,3.7,0,0,0-1.79-3.13,19.19,19.19,0,0,1,5.9-35.07V3.75a6.6,6.6,0,0,0-.77,0,19.19,19.19,0,0,0-9.31,35.52,3.7,3.7,0,0,1,1.79,3.13V43.7a3.08,3.08,0,0,0,3.07,3.09h4.1A3.08,3.08,0,0,1,27.32,43.7Z"></path>
    <path fill="#bdbdbd" d="M38.93,48v.81A1.2,1.2,0,0,1,37.72,50H26.27a1.2,1.2,0,0,1-1.19-1.19V48a1.2,1.2,0,0,1,1.13-1.19H37.78A1.2,1.2,0,0,1,38.93,48Z"></path>
    <path fill="#9e9d9e" d="M37.78 46.79H26.21A1.2 1.2 0 0025.08 48v.81a.79.79 0 000 .13 1.18 1.18 0 011-.73H37.7a1.2 1.2 0 011.13 1.07 1.28 1.28 0 00.1-.47V48A1.2 1.2 0 0037.78 46.79zM38.93 51.17V52a1.21 1.21 0 01-1.21 1.2H26.27A1.2 1.2 0 0125.08 52v-.81A1.2 1.2 0 0126.27 50H37.72A1.2 1.2 0 0138.93 51.17z"></path>
    <path fill="#757576" d="M37.72,50H26.27a1.2,1.2,0,0,0-1.19,1.19V52a1,1,0,0,0,.08.39,1.19,1.19,0,0,1,1.11-.8H37.72a1.2,1.2,0,0,1,1.13.8,1.23,1.23,0,0,0,.08-.39v-.81A1.2,1.2,0,0,0,37.72,50Z"></path>
    <path fill="#fcb316" d="M32.15,24.53a9.08,9.08,0,0,0-1.66.3v-.27c.06-1.3-.06-3.36-1.34-4.19A4,4,0,0,0,24.85,27a2.52,2.52,0,0,0,1.4.38,7.41,7.41,0,0,0,3.24-1v20.4a.5.5,0,0,0,.5.5.5.5,0,0,0,.5-.5V25.88a7.28,7.28,0,0,1,1.75-.35.49.49,0,0,0,.45-.54A.48.48,0,0,0,32.15,24.53Zm-6.76,1.63a3,3,0,0,1,3.22-4.95,3.22,3.22,0,0,1,.89,2.52h0v.7c0,.31,0,.6-.06.83C28.52,25.81,26.39,26.82,25.39,26.16Z"></path>
    <path fill="#bdbdbd" d="M38.93,54.37v.81a1.2,1.2,0,0,1-1.21,1.19H26.27a1.2,1.2,0,0,1-1.19-1.19v-.81a1.19,1.19,0,0,1,1.19-1.19H37.72A1.19,1.19,0,0,1,38.93,54.37Z"></path>
    <path fill="#9e9d9e" d="M37.72,53.18H26.27a1.19,1.19,0,0,0-1.19,1.19v.81a.94.94,0,0,0,.06.28,1.16,1.16,0,0,1,1.13-.91H37.72a1.17,1.17,0,0,1,1.15.91,1.4,1.4,0,0,0,.06-.28v-.81A1.19,1.19,0,0,0,37.72,53.18Z"></path>
    <path fill="#757576" d="M37.33,56.37V58a2.44,2.44,0,0,1-2.44,2.44H29.1A2.43,2.43,0,0,1,26.68,58V56.37Z"></path>
    <path fill="#616261" d="M26.68,56.37V57.9H37.25v.71a2.12,2.12,0,0,0,.08-.57V56.37Z"></path>
    <path fill="#f79d80" d="M50.31,28.29a4.33,4.33,0,0,1-1,1.64,34.18,34.18,0,0,0-2.79,2.88c-.78,1.16-1.11,2.75-1.82,4a4.07,4.07,0,0,1-1,1.2,3.87,3.87,0,0,1-1.26.65c-.32.22-.65.44-1,.64a3.7,3.7,0,0,0-1.79,3.13V43.7a3.08,3.08,0,0,1-3.07,3.09H31.43v-43a6.6,6.6,0,0,1,.77,0l.59,0c1.76.31,3.24,1.91,4.86,2.44,1.32.43,2.9.3,4.25.6a3.72,3.72,0,0,1,1.44.57,4.51,4.51,0,0,1,1.38,1.67,24.8,24.8,0,0,0,1.68,3.25,16,16,0,0,0,2.27,2.14,5.17,5.17,0,0,1,1.61,2.17,4.85,4.85,0,0,1,0,2.45,18.13,18.13,0,0,0-.57,3.33,24.23,24.23,0,0,0,.68,3.83A4.62,4.62,0,0,1,50.31,28.29Z"></path>
    <path fill="#f58967" d="M46.25 12.37a4.64 4.64 0 00-3.62.17.79.79 0 00-.18.14 4.47 4.47 0 00-2.67-1.14A4.66 4.66 0 0036.38 13a.5.5 0 000 .71.52.52 0 00.36.16.48.48 0 00.34-.14 3.76 3.76 0 012.67-1.15 3.5 3.5 0 012 .81A5.57 5.57 0 0040.49 16a.5.5 0 00.4.58H41a.49.49 0 00.49-.41 3.8 3.8 0 011.64-2.81 3.72 3.72 0 012.78-.11.48.48 0 00.64-.28A.5.5 0 0046.25 12.37zM44.25 28.75a.52.52 0 00-.66-.27A4.85 4.85 0 0040.4 32.2a5.12 5.12 0 00-.68-.62.51.51 0 00-.7.1.5.5 0 00.1.7c2.86 2.15 1 6.67.93 6.71a.51.51 0 00.26.66.48.48 0 00.2 0 .51.51 0 00.46-.3 8.71 8.71 0 00.39-5.71A3.84 3.84 0 0144 29.41.52.52 0 0044.25 28.75zM34.36 10.11h0a.5.5 0 01-.45-.55A4 4 0 0138.09 6a.5.5 0 01.48.51.49.49 0 01-.52.48 3 3 0 00-3.19 2.7A.51.51 0 0134.36 10.11zM33.22 46.78V3.92l-.43-.11-.59 0a6.6 6.6 0 00-.77 0v43h1.79z"></path>
    <path fill="#f9aa92" d="M50.36,26.26a24.23,24.23,0,0,1-.68-3.83,18.13,18.13,0,0,1,.57-3.33,4.85,4.85,0,0,0,0-2.45,5.17,5.17,0,0,0-1.61-2.17,16,16,0,0,1-2.27-2.14,24.8,24.8,0,0,1-1.68-3.25,4.51,4.51,0,0,0-1.38-1.67,3.72,3.72,0,0,0-1.44-.57c-1.35-.3-2.93-.17-4.25-.6-1.62-.53-3.1-2.13-4.86-2.44l-.59,0a6.6,6.6,0,0,0-.77,0v.88a15.82,15.82,0,0,0,2.89,1.62c1.32.43,2.9.3,4.25.6A3.72,3.72,0,0,1,40,7.42a4.51,4.51,0,0,1,1.38,1.67,24.8,24.8,0,0,0,1.68,3.25,16,16,0,0,0,2.27,2.14A5.17,5.17,0,0,1,47,16.65a4.85,4.85,0,0,1,0,2.45,18.13,18.13,0,0,0-.57,3.33A24.23,24.23,0,0,0,47,26.26a4.62,4.62,0,0,1-.05,2,4.33,4.33,0,0,1-1,1.64,34.18,34.18,0,0,0-2.79,2.88c-.78,1.16-1.11,2.75-1.82,4a4.07,4.07,0,0,1-1,1.2,3.87,3.87,0,0,1-1.26.65c-.32.22-.65.44-1,.64a3.7,3.7,0,0,0-1.79,3.13V43.7a3.07,3.07,0,0,1-3,3.08h3.27a3.08,3.08,0,0,0,3.07-3.09V42.42a3.7,3.7,0,0,1,1.79-3.13c.33-.2.66-.42,1-.64A3.87,3.87,0,0,0,43.75,38a4.07,4.07,0,0,0,1-1.2c.71-1.24,1-2.83,1.82-4a34.18,34.18,0,0,1,2.79-2.88,4.33,4.33,0,0,0,1-1.64A4.62,4.62,0,0,0,50.36,26.26Z"></path>
    <path fill="none" stroke="#22184c" stroke-linecap="round" stroke-linejoin="round" d="M31.43 46.78H26.21a3.08 3.08 0 01-3.07-3.09V42.42a3.7 3.7 0 00-1.79-3.13A19.19 19.19 0 0130.66 3.77a6.6 6.6 0 01.77 0v43zM38.93 48v.81A1.2 1.2 0 0137.72 50H26.27a1.2 1.2 0 01-1.19-1.19V48a1.2 1.2 0 011.13-1.19H37.78A1.2 1.2 0 0138.93 48z"></path>
    <path fill="none" stroke="#22184c" stroke-linecap="round" stroke-linejoin="round" d="M38.93,51.17V52a1.21,1.21,0,0,1-1.21,1.2H26.27A1.2,1.2,0,0,1,25.08,52v-.81A1.2,1.2,0,0,1,26.27,50H37.72A1.2,1.2,0,0,1,38.93,51.17Z"></path>
    <path fill="none" stroke="#22184c" stroke-linecap="round" stroke-linejoin="round" d="M38.93,54.37v.81a1.2,1.2,0,0,1-1.21,1.19H26.27a1.2,1.2,0,0,1-1.19-1.19v-.81a1.19,1.19,0,0,1,1.19-1.19H37.72A1.19,1.19,0,0,1,38.93,54.37Z"></path>
    <path fill="#f58967" d="M35.06,31.86a10.45,10.45,0,0,1,1.67-3,.51.51,0,0,0,0-.71.49.49,0,0,0-.7.05c-.16.18-3.87,4.55-1.86,9.67a.51.51,0,0,0,.47.32.57.57,0,0,0,.18,0,.5.5,0,0,0,.28-.65A7.67,7.67,0,0,1,34.73,33a7.69,7.69,0,0,1,1.83,4.86,6.31,6.31,0,0,1-2.7,4.59.51.51,0,0,0-.08.71.5.5,0,0,0,.39.18.45.45,0,0,0,.31-.11,7.26,7.26,0,0,0,3.08-5.33A9,9,0,0,0,35.06,31.86Z"></path>
    <path fill="none" stroke="#22184c" stroke-linecap="round" stroke-linejoin="round" d="M37.33,56.37V58a2.44,2.44,0,0,1-2.44,2.44H29.1A2.43,2.43,0,0,1,26.68,58V56.37Z"></path>
    <path fill="#22184c" d="M31.39,24.53a8.77,8.77,0,0,0-1.66.3v-.27c.06-1.3-.07-3.36-1.34-4.19A4,4,0,0,0,24.08,27a2.54,2.54,0,0,0,1.4.38,7.46,7.46,0,0,0,3.25-1v20.4a.5.5,0,0,0,.5.5.5.5,0,0,0,.5-.5V25.88a7.07,7.07,0,0,1,1.74-.35.51.51,0,0,0,.46-.54A.49.49,0,0,0,31.39,24.53Zm-6.76,1.63a2.95,2.95,0,0,1,3.21-4.95,3.22,3.22,0,0,1,.89,2.52h0v.7c0,.31,0,.6-.06.83C27.76,25.81,25.63,26.82,24.63,26.16Z"></path>
    <path fill="none" stroke="#22184c" stroke-linecap="round" stroke-linejoin="round" d="M50.31,28.29a4.33,4.33,0,0,1-1,1.64,34.18,34.18,0,0,0-2.79,2.88c-.78,1.16-1.11,2.75-1.82,4a4.07,4.07,0,0,1-1,1.2,3.87,3.87,0,0,1-1.26.65c-.32.22-.65.44-1,.64a3.7,3.7,0,0,0-1.79,3.13V43.7a3.08,3.08,0,0,1-3.07,3.09H31.43v-43a6.6,6.6,0,0,1,.77,0l.59,0c1.76.31,3.24,1.91,4.86,2.44,1.32.43,2.9.3,4.25.6a3.72,3.72,0,0,1,1.44.57,4.51,4.51,0,0,1,1.38,1.67,24.8,24.8,0,0,0,1.68,3.25,16,16,0,0,0,2.27,2.14,5.17,5.17,0,0,1,1.61,2.17,4.85,4.85,0,0,1,0,2.45,18.13,18.13,0,0,0-.57,3.33,24.23,24.23,0,0,0,.68,3.83A4.62,4.62,0,0,1,50.31,28.29Z"></path>
    <path fill="#f58967" d="M49,22c-.05,0-3.88-3-8.15-2h0c-.15,0-3.72.53-4.27-2.33a.51.51,0,0,0-.59-.4.5.5,0,0,0-.4.59,3.78,3.78,0,0,0,3.1,3,10,10,0,0,0-2.42,2,.49.49,0,0,0,.05.7.46.46,0,0,0,.33.13.5.5,0,0,0,.37-.17c5-5.67,11.13-1,11.39-.83a.49.49,0,0,0,.7-.08A.5.5,0,0,0,49,22Z"></path>
    <path fill="none" stroke="#22184c" stroke-linecap="round" stroke-linejoin="round" d="M49.68 22.43s-6.66-5.22-12.07.89M41.51 39.29S43.64 34.4 40.42 32M41.89 20.58s-4.2.62-4.84-2.74M41.89 34a4.39 4.39 0 012.9-5M38.57 6.46s-3.35-.12-3.71 3.14M46.4 12.34s-4.18-1.66-5.09 3.29M37.05 28.49s-3.7 4.26-1.77 9.16M35.17 32s6 5.83-.31 10.89M42.73 12.82a3.8 3.8 0 00-5.68 0"></path>
  </g>
</svg>
